<svg width="201" height="181" viewBox="0 0 201 181" xmlns="http://www.w3.org/2000/svg" xmlns:xlink="http://www.w3.org/1999/xlink">
    <defs>
        <path id="a" d="M.685.368H3.09V2.77H.684V.37z"/>
        <path id="c" d="M2.658.693v2.402H.255V.693h2.403z"/>
    </defs>
    <g fill="none" fill-rule="evenodd">
        <path d="M148.225 26.935c0 5.92 4.195 13.186 9.322 16.146 5.127 2.96 9.322.54 9.322-5.38s-4.196-13.187-9.323-16.147c-5.127-2.96-9.322-.538-9.322 5.382m6.923-8.272c-.073 0-.148-.007-.222-.02-.718-.136-1.424-.176-2.083-.128-.68.055-1.237-.45-1.285-1.11-.048-.66.448-1.236 1.11-1.284.864-.064 1.78-.01 2.7.16.65.123 1.08.75.96 1.402-.11.578-.614.98-1.18.98m-7.625 2.46c-.28 0-.558-.095-.784-.29-.502-.435-.558-1.192-.124-1.694.614-.713 1.327-1.313 2.116-1.787.57-.342 1.306-.156 1.647.412.342.568.158 1.306-.41 1.647-.572.342-1.088.78-1.536 1.297-.236.274-.57.415-.908.415m13.035.018c-.246 0-.495-.075-.71-.233-.46-.337-.93-.646-1.4-.916-.157-.09-.317-.18-.478-.264-.588-.307-.815-1.033-.507-1.62.307-.588 1.03-.818 1.62-.507.19.098.375.202.563.31.547.316 1.092.672 1.622 1.06.535.393.65 1.144.258 1.68-.235.32-.6.49-.97.49m4.26 4.205c-.358 0-.714-.16-.95-.465-.473-.61-.97-1.193-1.483-1.73-.457-.48-.437-1.24.043-1.697.482-.455 1.24-.438 1.697.042.568.597 1.12 1.24 1.642 1.914.406.525.31 1.278-.215 1.685-.22.17-.477.25-.734.25m-19.51 1.258c-.043 0-.087-.002-.132-.007-.66-.073-1.135-.666-1.062-1.325.1-.9.282-1.77.544-2.582.204-.63.883-.973 1.51-.774.632.204.98.88.776 1.512-.212.66-.362 1.368-.443 2.108-.07.614-.59 1.07-1.194 1.07m22.596 3.878c-.458 0-.894-.263-1.095-.707-.312-.69-.66-1.374-1.04-2.04-.328-.575-.126-1.31.45-1.637.574-.33 1.308-.128 1.637.45.415.728.8 1.482 1.14 2.24.274.603.006 1.314-.6 1.587-.16.073-.326.107-.492.107m-22.108 2.073c-.538 0-1.027-.365-1.164-.91-.21-.842-.367-1.685-.468-2.503-.08-.658.387-1.257 1.045-1.338.653-.1 1.256.387 1.338 1.044.09.723.228 1.467.416 2.215.16.644-.23 1.296-.874 1.456-.097.025-.196.037-.292.037m23.858 3.653c-.58 0-1.092-.422-1.185-1.013-.115-.722-.277-1.466-.486-2.21-.18-.637.194-1.3.833-1.48.635-.176 1.3.194 1.48.834.233.832.417 1.668.545 2.482.104.655-.342 1.27-.998 1.373-.063.01-.126.015-.188.015m-21.673 1.926c-.43 0-.843-.228-1.06-.632-.396-.737-.762-1.5-1.086-2.267-.258-.61.028-1.315.64-1.572.61-.258 1.313.028 1.57.64.297.695.63 1.39.99 2.062.315.584.096 1.312-.488 1.626-.18.098-.375.143-.567.143m21.493 4.032c-.1 0-.2-.01-.3-.038-.643-.166-1.03-.82-.863-1.462.175-.678.288-1.398.333-2.142.04-.662.625-1.154 1.272-1.125.663.042 1.166.612 1.125 1.273-.055.897-.193 1.77-.406 2.595-.14.542-.627.9-1.16.9m-18.062.875c-.33 0-.656-.135-.894-.4-.55-.61-1.083-1.267-1.587-1.95-.392-.534-.278-1.286.256-1.68.535-.39 1.285-.28 1.68.256.456.62.94 1.216 1.44 1.77.442.493.4 1.253-.093 1.696-.228.205-.515.307-.8.307m14.86 4.063c-.37 0-.738-.173-.974-.497-.39-.538-.268-1.29.27-1.678.537-.39 1.018-.87 1.426-1.427.393-.533 1.143-.65 1.68-.258.534.393.648 1.144.257 1.68-.557.758-1.215 1.414-1.957 1.95-.212.155-.458.23-.702.23m6.647-34.151c0 7.288 5.163 16.23 11.475 19.875 6.31 3.644 11.474.662 11.474-6.625s-5.165-16.23-11.476-19.875c-6.31-3.644-11.475-.662-11.475 6.625m-7.914 36.071c0-1.32-.958-2.08-2.13-1.69h-1.168c-1.81 0-3.75-.555-5.66-1.657-1.252-.723-1.745-1.153-1.745-1.153-.995-.868-1.81-.498-1.81.823v19.262c0 1.32.935 1.858 2.076 1.194l1.053-.613 1.052-.612 2.075-1.208 1.207 2.077 1.922 3.31 1.922 3.308c.663 1.142 1.206.996 1.206-.325V49.028zm23.611-42.975c.348 0 .708-.156.95-.468.395-.517.31-1.273-.217-1.68-.516-.41-1.274-.326-1.682.203-.408.53-.31 1.285.204 1.68.217.18.48.265.745.265" fill="#6976D4" opacity=".2"/>
        <g transform="translate(178 -.368)">
            <mask id="b" fill="#fff">
                <use xlink:href="#a"/>
            </mask>
            <path d="M1.815 2.77h.073c.635 0 1.164-.503 1.2-1.14.035-.66-.47-1.224-1.14-1.26C1.287.333.72.838.687 1.498c-.037.66.467 1.225 1.127 1.273" fill="#6976D4" opacity=".2" mask="url(#b)"/>
        </g>
        <path d="M192.086 9.354c.287 0 .564-.096.79-.3.506-.433.554-1.2.11-1.693-.432-.503-1.188-.55-1.693-.107-.492.433-.54 1.2-.107 1.693.24.264.575.408.9.408M184.03 3.46c.168.07.324.095.49.095.457 0 .902-.264 1.094-.708.264-.612-.012-1.32-.612-1.585-.612-.276-1.32.012-1.585.612-.264.613.013 1.32.613 1.585m12.077 13.255c.204.456.648.72 1.104.72.17 0 .326-.024.482-.096.6-.264.888-.972.624-1.584h-.012c-.264-.6-.96-.89-1.573-.612-.61.264-.887.972-.623 1.572m-.194 17.086c-.42.515-.336 1.27.18 1.69.216.18.48.266.757.266.348 0 .696-.156.924-.445.42-.516.348-1.272-.168-1.692-.516-.408-1.272-.336-1.693.18m-.949-20.602c.216 0 .433-.06.637-.18.564-.36.72-1.105.37-1.657-.36-.564-1.09-.733-1.655-.385-.564.36-.732 1.104-.372 1.67.227.36.612.552 1.02.552m2.63 7.875c.144.54.635.9 1.176.9.096 0 .192 0 .288-.036.637-.156 1.033-.804.877-1.453-.168-.635-.817-1.03-1.465-.875-.636.167-1.032.816-.876 1.464m-28.154-5.619c.66-.047 1.164-.624 1.116-1.284-.048-.662-.612-1.165-1.272-1.117-.673.047-1.177.61-1.13 1.27.05.638.578 1.13 1.202 1.13h.084zm29.834 13.675c-.648-.18-1.297.204-1.476.84-.17.65.216 1.297.852 1.477.108.024.204.036.312.036.53 0 1.02-.36 1.164-.888.17-.648-.215-1.308-.852-1.464m-26.113-.794c.23.348.613.54.997.54.228 0 .456-.06.66-.192.552-.37.696-1.116.336-1.668-.36-.552-1.104-.708-1.656-.337-.553.36-.71 1.105-.35 1.657h.013z" fill="#6976D4" opacity=".2"/>
        <g transform="translate(198 23.632)">
            <mask id="d" fill="#fff">
                <use xlink:href="#c"/>
            </mask>
            <path d="M1.41.694C.75.72.23 1.27.255 1.93.28 2.58.82 3.096 1.47 3.096h.035c.66-.036 1.176-.588 1.153-1.248C2.633 1.187 2.08.67 1.408.694" fill="#6976D4" opacity=".2" mask="url(#d)"/>
        </g>
        <path d="M172.91 22.98c-.275-.6-.983-.863-1.583-.586-.613.275-.865.983-.59 1.584.205.444.638.708 1.094.708.17 0 .336-.035.494-.108.6-.276.864-.997.587-1.597m-3.495-12.331c.096.013.18.024.265.024.552 0 1.045-.383 1.176-.935.132-.65-.276-1.298-.924-1.43-.648-.145-1.285.252-1.43.912-.143.648.265 1.285.913 1.43m2.149-4.358c.373 0 .745-.17.973-.504.384-.542.263-1.286-.278-1.67-.54-.384-1.283-.265-1.668.276-.396.54-.264 1.297.276 1.68.205.144.457.217.696.217m-.225 12.368h-.013c-.17-.638-.83-1.022-1.465-.842-.65.18-1.02.84-.84 1.478h-.013c.155.527.636.887 1.165.887.108 0 .215-.023.312-.048.648-.18 1.02-.84.852-1.476m3.866-15.404c.168 0 .35-.036.504-.12.613-.276.864-.984.59-1.596C176.02.937 175.3.685 174.7.96c-.6.276-.863.996-.575 1.597.203.43.636.695 1.08.695" fill="#6976D4" opacity=".2"/>
        <g fill="#6976D4" opacity=".2">
            <path d="M192.577 40.325c-.093-1.317-.917-2.235-1.83-2.04h-.786c-2.108 0-4.377-.653-6.62-1.948-2.203-1.272-4.374-3.475-4.374-3.475-.927-.94-1.77-.633-1.876.683l-3.532 44.175c-.105 1.316.746 1.856 1.892 1.2l7.31-4.194c1.144-.657 2.623-.26 3.284.884l9.07 15.675c.66 1.143 1.127 1 1.034-.317l-3.57-50.643z"/>
            <path d="M177.955 31.317c-.78 0-1.735.563-1.862 2.15L172.56 77.64c-.08 1.02.264 1.625.567 1.953.36.39.864.606 1.418.606.453 0 .925-.14 1.402-.414l7.31-4.192c.21-.12.45-.185.693-.185.507 0 .978.268 1.23.7l9.068 15.676c.316.546.827 1.27 1.61 1.27.335 0 .645-.135.876-.383.345-.37.472-.917.41-1.775l-3.57-50.643c-.122-1.736-1.208-2.995-2.582-2.995-.112 0-.225.01-.336.026h-.695c-1.947 0-4.063-.627-6.12-1.815-2.056-1.186-4.14-3.29-4.162-3.31-.686-.697-1.316-.843-1.723-.843m0 1c.298 0 .648.177 1.01.545 0 0 2.172 2.203 4.376 3.475 2.243 1.295 4.512 1.95 6.62 1.95h.786c.083-.02.165-.027.246-.027.81 0 1.5.867 1.585 2.065l3.57 50.643c.05.72-.065 1.09-.288 1.09-.187 0-.446-.255-.746-.773l-9.07-15.675c-.445-.77-1.26-1.2-2.094-1.2-.406 0-.817.102-1.19.316l-7.31 4.193c-.332.19-.64.28-.905.28-.653 0-1.062-.544-.987-1.48l3.532-44.175c.064-.8.4-1.228.865-1.228"/>
        </g>
        <path d="M106.632 70.016c-6.305-3.64-16.623-3.64-22.93 0l-78.288 45.2c-6.306 3.64-6.306 9.597 0 13.238l87.22 49.448c6.307 3.64 16.625 3.64 22.93 0l78.29-45.2c6.305-3.64 6.305-9.598 0-13.24L106.63 70.017z" fill="#6976D4" opacity=".2"/>
        <path d="M86.576 34.46C60.424 57.84 6.353 83.882 6.353 83.882l.005.007c1.537-.7 3.566-.55 5.818.64 5.016 2.65 9.294 9.455 9.507 15.124.1 2.666-.724 4.612-2.138 5.664 19.164-11.465 80.927-43.636 84.588-54.06 3.66-10.427-17.557-16.8-17.557-16.8z" stroke="#33475C" stroke-width="5" stroke-linecap="round" stroke-linejoin="round"/>
        <path d="M10.54 82.857c.678.193 1.373.476 2.073.845 5.29 2.797 9.78 9.937 10.006 15.917.038 1.083-.064 2.087-.3 2.983 4.093-2.37 9.341-5.313 15.208-8.602 25.09-14.067 63.01-35.325 65.722-43.054.6-1.706.48-3.344-.365-5.006-2.96-5.818-13.657-9.627-16.086-10.43C64.754 55.03 23.235 76.5 10.54 82.858zm9.005 23.395c-.302 0-.598-.146-.778-.416-.276-.412-.178-.97.22-1.268 1.223-.908 1.85-2.64 1.763-4.88-.2-5.293-4.326-11.857-9.01-14.332-1.896-1.002-3.668-1.22-4.995-.615-.394.18-.87.063-1.135-.29-.167-.222-.23-.514-.163-.784.066-.272.248-.504.5-.625.54-.26 54.254-26.254 80.007-49.28.243-.214.583-.293.89-.196.573.17 14.02 4.28 17.707 11.53 1.076 2.11 1.23 4.288.465 6.473-2.722 7.75-33.043 25.266-66.573 44.064-7.556 4.237-14.082 7.895-18.418 10.49-.15.09-.316.132-.48.132z" stroke="#33475C" stroke-width="5" stroke-linecap="round" stroke-linejoin="round"/>
        <path d="M86.576 34.46C75.68 44.2 59.94 54.397 45.28 62.987c.98.133 2.036.47 3.145 1.057 5.33 2.816 9.878 10.05 10.105 16.076.048 1.267-.11 2.373-.42 3.32 21.783-12.5 43.878-26.075 46.023-32.183 3.66-10.426-17.557-16.798-17.557-16.798z" stroke="#33475C" stroke-width="5" stroke-linecap="round" stroke-linejoin="round"/>
        <path d="M47.668 62.667c.398.157.796.34 1.194.55 5.61 2.964 10.364 10.532 10.603 16.87.018.52.006 1.03-.038 1.52 12.11-6.964 41.523-24.106 43.824-30.66.6-1.707.48-3.344-.366-5.007-2.958-5.818-13.655-9.627-16.084-10.43-9.038 8.004-22.19 17.132-39.132 27.157zM58.11 84.374c-.21 0-.42-.07-.59-.21-.3-.245-.42-.648-.298-1.015.29-.886.416-1.892.374-2.994-.212-5.646-4.61-12.646-9.607-15.284-.97-.51-1.923-.834-2.834-.958-.394-.053-.712-.35-.79-.743-.08-.39.1-.786.444-.99 18.014-10.554 31.857-20.116 41.144-28.42.243-.214.583-.293.89-.196.573.17 14.02 4.28 17.707 11.53 1.076 2.11 1.23 4.288.465 6.473-1.837 5.228-16.158 15.307-46.44 32.683-.145.084-.304.124-.464.124zm-45.16 20.769c5.017 2.65 8.946.18 8.733-5.49-.213-5.668-4.49-12.474-9.507-15.123-5.016-2.65-8.945-.18-8.732 5.49.213 5.667 4.49 12.473 9.507 15.123z" stroke="#33475C" stroke-width="5" stroke-linecap="round" stroke-linejoin="round"/>
        <path d="M8.38 84.396c-.762 0-1.448.183-2.033.55-1.36.854-2.06 2.643-1.97 5.037.2 5.294 4.327 11.858 9.01 14.333 2.12 1.12 4.033 1.263 5.393.41 1.36-.854 2.06-2.642 1.97-5.037-.2-5.295-4.327-11.86-9.01-14.334-1.21-.64-2.352-.96-3.36-.96zm8.375 22.75c-1.317 0-2.756-.393-4.24-1.176-5.29-2.797-9.78-9.937-10.006-15.917-.116-3.09.893-5.465 2.843-6.69 1.95-1.225 4.528-1.1 7.26.34 5.29 2.796 9.78 9.936 10.005 15.916.115 3.09-.894 5.464-2.843 6.69-.89.56-1.912.837-3.02.837z" stroke="#33475C" stroke-width="5" stroke-linecap="round" stroke-linejoin="round"/>
        <path d="M16.467 97.94l4.396-2.487c-1.04-3.12-2.987-6.184-5.358-8.45l-5.49 2.97c2.73-1.364 6.452 7.966 6.452 7.966z" stroke="#33475C" stroke-width="5" stroke-linecap="round" stroke-linejoin="round"/>
        <path d="M12.5 89.693c1.908 1.552 3.615 5.062 4.424 6.914l2.794-1.58c-.956-2.505-2.51-4.95-4.38-6.873l-2.84 1.54zm3.967 9.18c-.104 0-.21-.02-.31-.053-.254-.09-.458-.285-.56-.535-1.1-2.762-3.317-6.904-4.794-7.466-.19-.076-.294-.048-.37-.01-.45.234-1.012.048-1.247-.405-.235-.453-.066-1.01.383-1.252l5.49-2.972c.36-.196.798-.132 1.092.147 2.475 2.366 4.515 5.586 5.598 8.83.14.425-.04.89-.427 1.11l-4.396 2.485c-.142.08-.3.12-.46.12zm31.958-34.828c-1.11-.586-2.163-.924-3.143-1.057.002 0 .003-.002.005-.003-2.808 1.645-5.576 3.234-8.262 4.746 1.408-.33 3.122-.056 4.987.93 5.016 2.65 9.294 9.455 9.507 15.124.056 1.5-.185 2.767-.65 3.783 2.39-1.355 4.812-2.734 7.24-4.127.31-.947.468-2.053.42-3.32-.226-6.024-4.774-13.26-10.105-16.075z" stroke="#33475C" stroke-width="5" stroke-linecap="round" stroke-linejoin="round"/>
        <path d="M40.284 66.96c.706.194 1.433.486 2.165.873 5.29 2.795 9.777 9.934 10.004 15.915.023.663-.004 1.295-.084 1.893 1.642-.93 3.296-1.875 4.952-2.826.22-.8.31-1.692.273-2.658-.21-5.646-4.61-12.646-9.606-15.283-.86-.455-1.708-.76-2.526-.91-1.745 1.023-3.475 2.023-5.18 2.996zM50.87 88.5c-.23 0-.455-.084-.632-.247-.3-.274-.387-.708-.22-1.077.426-.927.616-2.057.566-3.36-.2-5.295-4.324-11.858-9.008-14.33-1.6-.848-3.097-1.138-4.338-.848-.45.113-.917-.135-1.085-.57-.17-.434.008-.925.413-1.153 2.68-1.51 5.447-3.096 8.248-4.74.183-.103.39-.145.594-.114 1.128.154 2.29.543 3.453 1.156 5.61 2.96 10.366 10.53 10.605 16.867.05 1.323-.108 2.55-.466 3.643-.074.22-.224.405-.424.52-2.43 1.395-4.854 2.775-7.247 4.13-.145.08-.302.122-.46.122zm-34.403 9.44s-3.722-9.33-6.452-7.966c-2.73 1.364-.62 10.644 8.54 15.9 2.014-.79 3.25-2.98 3.13-6.22-.053-1.36-.35-2.783-.82-4.2h-.002l-4.396 2.485z" stroke="#33475C" stroke-width="5" stroke-linecap="round" stroke-linejoin="round"/>
        <path d="M10.586 90.772c-.064 0-.11.018-.153.038-.347.174-.568.758-.592 1.56-.077 2.768 2.243 8.527 8.765 12.452 1.462-.802 2.238-2.642 2.144-5.133-.033-.892-.183-1.847-.446-2.847l-3.377 1.91c-.237.133-.518.153-.77.067-.254-.09-.458-.285-.56-.535-1.1-2.762-3.317-6.903-4.794-7.466-.09-.035-.16-.048-.217-.048zm7.968 16.037c-.16 0-.322-.043-.466-.125-7.6-4.36-10.213-10.98-10.114-14.367.044-1.55.62-2.68 1.623-3.18.576-.292 1.224-.314 1.872-.065 2.31.88 4.5 5.353 5.454 7.535l3.48-1.968c.243-.14.532-.16.795-.06.26.102.46.314.55.578.524 1.57.816 3.072.87 4.46.13 3.55-1.228 6.147-3.725 7.128-.11.042-.226.063-.34.063z" stroke="#33475C" stroke-width="5" stroke-linecap="round" stroke-linejoin="round"/>
        <path d="M86.576 34.46C60.424 57.84 6.353 83.882 6.353 83.882l.005.007c1.537-.7 3.566-.55 5.818.64 5.016 2.65 9.294 9.455 9.507 15.124.1 2.666-.724 4.612-2.138 5.664 19.164-11.465 80.927-43.636 84.588-54.06 3.66-10.427-17.557-16.8-17.557-16.8" fill="#EBF0F7"/>
        <path d="M10.54 82.857c.678.193 1.373.476 2.073.845 5.29 2.797 9.78 9.937 10.006 15.917.038 1.083-.064 2.087-.3 2.983 4.093-2.37 9.341-5.313 15.208-8.602 25.09-14.067 63.01-35.325 65.722-43.054.6-1.706.48-3.344-.365-5.006-2.96-5.818-13.657-9.627-16.086-10.43C64.754 55.03 23.235 76.5 10.54 82.858m9.005 23.395c-.302 0-.598-.146-.778-.416-.276-.412-.178-.97.22-1.268 1.223-.908 1.85-2.64 1.763-4.88-.2-5.293-4.326-11.857-9.01-14.332-1.896-1.002-3.668-1.22-4.995-.615-.394.18-.87.063-1.135-.29-.167-.222-.23-.514-.163-.784.066-.272.248-.504.5-.625.54-.26 54.254-26.254 80.007-49.28.243-.214.583-.293.89-.196.573.17 14.02 4.28 17.707 11.53 1.076 2.11 1.23 4.288.465 6.473-2.722 7.75-33.043 25.266-66.573 44.064-7.556 4.237-14.082 7.895-18.418 10.49-.15.09-.316.132-.48.132" fill="#33475C"/>
        <path d="M86.576 34.46C75.68 44.2 59.94 54.397 45.28 62.987c.98.133 2.036.47 3.145 1.057 5.33 2.816 9.878 10.05 10.105 16.076.048 1.267-.11 2.373-.42 3.32 21.783-12.5 43.878-26.075 46.023-32.183 3.66-10.426-17.557-16.798-17.557-16.798" fill="#EBF0F7"/>
        <path d="M47.668 62.667c.398.157.796.34 1.194.55 5.61 2.964 10.364 10.532 10.603 16.87.018.52.006 1.03-.038 1.52 12.11-6.964 41.523-24.106 43.824-30.66.6-1.707.48-3.344-.366-5.007-2.958-5.818-13.655-9.627-16.084-10.43-9.038 8.004-22.19 17.132-39.132 27.157M58.11 84.374c-.21 0-.42-.07-.59-.21-.3-.245-.42-.648-.298-1.015.29-.886.416-1.892.374-2.994-.212-5.646-4.61-12.646-9.607-15.284-.97-.51-1.923-.834-2.834-.958-.394-.053-.712-.35-.79-.743-.08-.39.1-.786.444-.99 18.014-10.554 31.857-20.116 41.144-28.42.243-.214.583-.293.89-.196.573.17 14.02 4.28 17.707 11.53 1.076 2.11 1.23 4.288.465 6.473-1.837 5.228-16.158 15.307-46.44 32.683-.145.084-.304.124-.464.124" fill="#33475C"/>
        <path d="M12.95 105.143c5.017 2.65 8.946.18 8.733-5.49-.213-5.668-4.49-12.474-9.507-15.123-5.016-2.65-8.945-.18-8.732 5.49.213 5.667 4.49 12.473 9.507 15.123" fill="#98ACC3"/>
        <path d="M8.38 84.396c-.762 0-1.448.183-2.033.55-1.36.854-2.06 2.643-1.97 5.037.2 5.294 4.327 11.858 9.01 14.333 2.12 1.12 4.033 1.263 5.393.41 1.36-.854 2.06-2.642 1.97-5.037-.2-5.295-4.327-11.86-9.01-14.334-1.21-.64-2.352-.96-3.36-.96m8.375 22.75c-1.317 0-2.756-.393-4.24-1.176-5.29-2.797-9.78-9.937-10.006-15.917-.116-3.09.893-5.465 2.843-6.69 1.95-1.225 4.528-1.1 7.26.34 5.29 2.796 9.78 9.936 10.005 15.916.115 3.09-.894 5.464-2.843 6.69-.89.56-1.912.837-3.02.837" fill="#33475C"/>
        <path d="M16.467 97.94l4.396-2.487c-1.04-3.12-2.987-6.184-5.358-8.45l-5.49 2.97c2.73-1.364 6.452 7.966 6.452 7.966" fill="#EBF0F7"/>
        <path d="M12.5 89.693c1.908 1.552 3.615 5.062 4.424 6.914l2.794-1.58c-.956-2.505-2.51-4.95-4.38-6.873l-2.84 1.54zm3.967 9.18c-.104 0-.21-.02-.31-.053-.254-.09-.458-.285-.56-.535-1.1-2.762-3.317-6.904-4.794-7.466-.19-.076-.294-.048-.37-.01-.45.234-1.012.048-1.247-.405-.235-.453-.066-1.01.383-1.252l5.49-2.972c.36-.196.798-.132 1.092.147 2.475 2.366 4.515 5.586 5.598 8.83.14.425-.04.89-.427 1.11l-4.396 2.485c-.142.08-.3.12-.46.12z" fill="#33475C"/>
        <path d="M48.425 64.045c-1.11-.586-2.163-.924-3.143-1.057.002 0 .003-.002.005-.003-2.808 1.645-5.576 3.234-8.262 4.746 1.408-.33 3.122-.056 4.987.93 5.016 2.65 9.294 9.455 9.507 15.124.056 1.5-.185 2.767-.65 3.783 2.39-1.355 4.812-2.734 7.24-4.127.31-.947.468-2.053.42-3.32-.226-6.024-4.774-13.26-10.105-16.075" fill="#F7C364"/>
        <path d="M40.284 66.96c.706.194 1.433.486 2.165.873 5.29 2.795 9.777 9.934 10.004 15.915.023.663-.004 1.295-.084 1.893 1.642-.93 3.296-1.875 4.952-2.826.22-.8.31-1.692.273-2.658-.21-5.646-4.61-12.646-9.606-15.283-.86-.455-1.708-.76-2.526-.91-1.745 1.023-3.475 2.023-5.18 2.996M50.87 88.5c-.23 0-.455-.084-.632-.247-.3-.274-.387-.708-.22-1.077.426-.927.616-2.057.566-3.36-.2-5.295-4.324-11.858-9.008-14.33-1.6-.848-3.097-1.138-4.338-.848-.45.113-.917-.135-1.085-.57-.17-.434.008-.925.413-1.153 2.68-1.51 5.447-3.096 8.248-4.74.183-.103.39-.145.594-.114 1.128.154 2.29.543 3.453 1.156 5.61 2.96 10.366 10.53 10.605 16.867.05 1.323-.108 2.55-.466 3.643-.074.22-.224.405-.424.52-2.43 1.395-4.854 2.775-7.247 4.13-.145.08-.302.122-.46.122" fill="#33475C"/>
        <path d="M16.467 97.94s-3.722-9.33-6.452-7.966c-2.73 1.364-.62 10.644 8.54 15.9 2.014-.79 3.25-2.98 3.13-6.22-.053-1.36-.35-2.783-.82-4.2h-.002l-4.396 2.485z" fill="#CBD6E3"/>
        <path d="M10.586 90.772c-.064 0-.11.018-.153.038-.347.174-.568.758-.592 1.56-.077 2.768 2.243 8.527 8.765 12.452 1.462-.802 2.238-2.642 2.144-5.133-.033-.892-.183-1.847-.446-2.847l-3.377 1.91c-.237.133-.518.153-.77.067-.254-.09-.458-.285-.56-.535-1.1-2.762-3.317-6.903-4.794-7.466-.09-.035-.16-.048-.217-.048m7.968 16.037c-.16 0-.322-.043-.466-.125-7.6-4.36-10.213-10.98-10.114-14.367.044-1.55.62-2.68 1.623-3.18.576-.292 1.224-.314 1.872-.065 2.31.88 4.5 5.353 5.454 7.535l3.48-1.968c.243-.14.532-.16.795-.06.26.102.46.314.55.578.524 1.57.816 3.072.87 4.46.13 3.55-1.228 6.147-3.725 7.128-.11.042-.226.063-.34.063" fill="#33475C"/>
        <path d="M194.843 108.5h.003v-5.59c-.008.67-.45 1.34-1.333 1.85l-1.65.953-63.333-36.565c-1.78-1.028-4.694-1.028-6.475 0l-87.85 50.72-1.65-.953c-.856-.495-1.29-1.142-1.322-1.794h-.013l.006 5.524h.002c-.02.693.418 1.39 1.328 1.915l64.983 37.516c1.78 1.028 4.693 1.028 6.474 0l89.5-51.672c.905-.523 1.345-1.215 1.33-1.904z" stroke="#33475C" stroke-width="5"/>
        <path d="M32.156 119.764l.004 2.88c-.01.39.304.783.863 1.107l64.984 37.518c1.5.866 4.04.868 5.54 0l89.5-51.673c.556-.32.87-.712.86-1.073v-.022l.003-2.888-1.58.91c-.287.165-.645.167-.934 0l-63.333-36.566c-1.5-.865-4.04-.867-5.54 0l-87.85 50.72c-.288.17-.646.17-.934 0l-1.584-.912zm68.62 44.022c-1.333 0-2.665-.3-3.704-.9l-64.984-37.518c-1.17-.677-1.827-1.68-1.796-2.75l-.007-5.495c0-.248.1-.488.274-.663.525-.527 1.57-.128 1.605.617.018.35.33.725.858 1.028l1.183.684 87.382-50.45c2.078-1.204 5.332-1.202 7.41 0l62.866 36.294 1.183-.683c.545-.313.86-.698.865-1.054.007-.51.423-.922.934-.922h.006c.515.004.93.422.93.935l-.005 5.59c.017 1.057-.637 2.044-1.796 2.714l-89.5 51.672c-1.037.6-2.372.9-3.704.9z" stroke="#33475C" stroke-width="5"/>
        <path d="M128.53 63.505c-1.78-1.028-4.694-1.028-6.475 0l-89.5 51.673c-1.78 1.028-1.78 2.71 0 3.738l64.983 37.518c1.78 1.028 4.695 1.028 6.475 0l89.5-51.673c1.78-1.027 1.78-2.71 0-3.737L128.53 63.505z" stroke="#33475C" stroke-width="5"/>
        <path d="M125.294 63.664c-1.01 0-2.02.217-2.77.65l-89.5 51.67c-.552.32-.868.708-.868 1.064 0 .354.316.74.867 1.058l64.984 37.518c1.5.866 4.04.867 5.54 0l89.5-51.67c.55-.32.867-.706.867-1.062 0-.356-.316-.74-.867-1.06l-64.984-37.518c-.75-.433-1.76-.65-2.77-.65zm-24.518 94.478c-1.332 0-2.665-.3-3.704-.9L32.09 119.724c-1.146-.66-1.803-1.636-1.803-2.676 0-1.04.655-2.017 1.802-2.68l89.5-51.67c2.076-1.204 5.33-1.202 7.408 0l64.983 37.517c1.146.66 1.803 1.637 1.803 2.677s-.657 2.017-1.802 2.678l-89.498 51.672c-1.04.6-2.373.9-3.706.9z" stroke="#33475C" stroke-width="5"/>
        <path stroke="#33475C" stroke-width="5" d="M125.293 70.27l56.505 32.622-81.022 46.778-56.504-32.623 81.02-46.778"/>
        <path d="M46.14 117.046l54.636 31.545 79.152-45.698-54.634-31.545-79.154 45.7zm54.636 33.56c-.16 0-.323-.043-.467-.127l-56.506-32.625c-.29-.166-.468-.475-.468-.81 0-.333.18-.642.468-.808l81.023-46.778c.288-.168.646-.168.934 0l56.504 32.624c.29.166.468.474.468.808 0 .334-.18.643-.468.81l-81.02 46.777c-.145.083-.307.125-.468.125z" stroke="#33475C" stroke-width="5"/>
        <path d="M106.994 104.043h-1.755l.263-1.14 1.49.307v.833zm10.56-7.616c-3.365 1.786-6.705 3.696-10.016 5.667-.677-.067-1.352-.15-2.015-.288.09-.325.17-.653.214-.99.013-.096-.106-.13-.17-.08-.307.227-.543.54-.744.885-.496-.122-.995-.228-1.484-.39-.473-.157-.716.575-.244.73.46.154.898.34 1.317.556-.19.564-.297 1.15-.37 1.69-3.545 2.188-7.044 4.45-10.442 6.778-.067.046-.015.16.06.117 3.56-1.964 7.01-4.11 10.46-6.264.068.064.154.114.246.12l3.38.248c.1.008.18-.024.243-.073.146.023.305-.034.338-.197.158-.773.13-1.575.156-2.362.004-.138-.078-.242-.186-.314 3.094-1.915 6.205-3.802 9.416-5.517.198-.108.04-.42-.16-.313zm-20.978 43.408c-.16 0-.318-.084-.405-.234-.127-.22-.05-.508.172-.638l22.552-13.02c.218-.127.506-.053.64.172.127.223.05.51-.172.64l-22.552 13.02c-.073.04-.154.06-.234.06zm45.869-26.482c-.16 0-.318-.084-.405-.234-.128-.223-.05-.51.17-.64l22.54-13.01c.216-.128.506-.055.638.17.127.224.05.51-.172.64l-22.537 13.01c-.074.043-.155.063-.235.063zM93.37 137.54c-.162 0-.32-.085-.406-.235-.128-.222-.05-.51.17-.64l22.696-13.1c.22-.13.505-.056.64.17.126.223.05.51-.173.64l-22.694 13.102c-.073.042-.154.062-.234.062zm46.01-26.565c-.16 0-.318-.084-.405-.234-.128-.22-.05-.508.17-.638l22.54-13.01c.216-.126.504-.055.638.17.127.224.05.51-.172.64l-22.536 13.01c-.073.043-.154.063-.234.063zm-30.93-20.16c-.744.63-1.332 1.504-1.884 2.386.027-.53.024-1.064-.038-1.61-.04-.344-.527-.57-.72-.194-.622 1.2-1.246 2.402-1.84 3.617.06-.678.247-1.328.5-2.01.012-.027-.028-.05-.047-.028-.82.892-1.082 2.11-1.034 3.295.012.302.416.428.576.157.643-1.087 1.234-2.205 1.82-3.324-.032.598-.113 1.192-.27 1.79-.122.463.483.68.74.313.904-1.29 2.148-2.62 2.675-4.114.103-.29-.28-.444-.476-.277zM80.133 113.59c-.055.266-.143.52-.208.782-.127-.184-.22-.56-.256-1.233l.89-2.584-.427 3.033zm-4.94 1.395c-.705 1.46-.914-3.102-.914-3.102 1.303.443 1.615 1.642.912 3.102zm24.47-18.444c-.157.21-2.793 3.66-2.902 3.48-.23-.373-.87-.334-.975.13-.697 3.067-1.007-.393-1.205-1.245-.1-.43-.707-.482-.92-.12-.495.832-1.58 4.025-2.275 4.498-.81.55.588 1.42-.895.133-.304-.264-.69-.136-.834.22-.512 1.34-1.102 2.64-1.77 3.907-.168-.998-.246-2.003-.234-3.015-.013-.38-.556-.7-.833-.345-.845 1.08-1.58 2.087-2.182 3.33-.296.61-1.35 3.925-1.055 1.192.06-.544-.823-.65-.947-.128-.258 1.084-.515 2.163-.873 3.22-.084.247-.223.603-.387.975.2-1.463.3-2.8.335-3.822.018-.48-.6-.706-.928-.385-2.195 2.16-2.675 4.894-1.348 7.555-.223.667-.466 1.328-.738 1.984-.296.712-.477 1.247-.653 1.653l.006.002s-1.145 3.057-3.13 2.53c-1.874-.495-2.42-3.763-2.478-4.137l-.01-.06v-.013c-.058-.414-.074-.916-.074-1.55-.036-4.038 1.422-4.215 1.422-4.215.018 1.242.222 2.47.667 3.845.087.268.372.382.622.253 2.173-1.13 1.945-5.407-.787-5.988-.035-.007-.064-.004-.098-.01.032-.488.092-.976.21-1.468.023-.145-.192-.212-.225-.063-.12.525-.193 1.014-.26 1.502-2.725-.175-2.7 4.603-2.553 6.278.19 2.162 1 9.203 4.655 7.48 2.3-1.084 3.71-4.08 4.555-7.273.036-.033.078-.056.103-.104.978-1.904 1.734-3.772 2.325-5.76.117.208.253.42.427.655.23.31.778.326.884-.115.152-.633 1.457-5.648 2.42-5.49-.05-.01.418 3.298.396 3.156.068.43.708.464.9.12.21-.382 2.12-5.045 2.84-4.033.255.36.767.303.916-.12.16-.452 1.53-4.634 2.018-4.576.255.03.776 2.06.906 2.443.145.43.702.51.95.124.806-1.25 1.134-1.053.396-2.263.136.223.362.282.604.246 1.9-.286 2.913-2.68 3.956-4.056.426-.56-.526-1.11-.945-.553zm33.033-11.708c-.18.075-6.36 1.253-7.157.46-.152-.15-.453-.178-.6 0-.17.208-1.65 2.204-1.866 2.08-.27-.153.51-4.308.545-4.596.047-.4-.514-.466-.698-.19-.538.81-3.515 5.627-3.92 5.56.345.057-.057-2.685-.073-2.802-.036-.248-.432-.35-.585-.154-.995 1.278-1.955 2.573-2.83 3.938-1.632 2.546-.73 1.64-.122-.87.5-2.058 1.946-4.888.52-6.78-.064-.084-.177-.137-.277-.072-1.47.943-2.5 1.973-3.304 3.384l-.098.13-.02.095c-.134.25-.278.485-.4.762-.062.143.137.27.215.126l.134-.26c.35-.658 1.366-2.427 2.24-2.578 1.65-.044 1.25 2.056.988 3.028l-1.635 6.047c-.1.366.427.598.617.26.558-.988 1.123-1.968 1.737-2.923.24-.386.492-.763.755-1.133.48-1.047.86-.723 1.146.973-.084.32.36.634.595.347 1.158-1.422 2.19-3.07 3.41-4.43.395-.442.53-1.155.664-.925.284.488-.513 4.013-.588 4.597-.043.34.472.537.685.283.815-.972 1.637-2.332 2.815-2.675.215-.063 1.108.22 1.482.18 1.987-.214 4.12-.25 5.88-1.248.32-.182.1-.764-.258-.614zm-8.976 37.98c-.96-1.126-1.728-2.024-1.49-3.626.018-.108-.142-.16-.167-.046-.305 1.335.088 3.294 1.48 3.902.15.066.29-.097.177-.23zm6.07-12.993c-1.44-.78-4.604.087-5.475 1.474-.02.032.014.076.05.065.895-.283 1.637-.86 2.578-1.067.954-.21 1.874.013 2.803-.138.158-.026.174-.264.044-.334z" stroke="#33475C" stroke-width="5"/>
        <path d="M131.82 118.998c-.437.19-.873.377-1.31.566.51-1.29 1.523-2.61 2.17-2.652.87.986.582 1.682-.86 2.086zm-.587 3.045c-.897-.016-1.126-.666-1-1.495.892-.213 1.79-.442 2.568-.82-.524 1.137-1.165 2.323-1.567 2.315zm-7.995-4.39s-2.354-1.28-2.354-2.9c0-1.618 2.022-1.662 2.022-1.662l1.764.276c.147.036.3.076.452.115-.297 1.554-.503 3.103-.606 4.653-.488-.054-.938-.186-1.278-.48zm2.627-3.813l1.127.575s-.547 2.596-.564 3.718c0 0-.925.15-1.035 0 0 0 .02-2.83.472-4.293zm2.087.914c.53.47.896 1.095.943 1.957.004.073.036.125.08.16-.473.286-1.024.555-1.62.782.05-1.004.24-1.962.597-2.898zm.618-1.325c.406-.724 1.673-2.71 2.852-1.768l.04 2.208c-.172.976-.662 1.733-1.473 2.272-.17.163-.404.338-.668.515-.052-.954-.477-1.784-1.1-2.483.114-.248.21-.498.348-.745zm8.11 7.31c-.105.114-.202.177-.296.218.05-.07.078-.156.12-.23.037-.033.076-.062.108-.11 1.196-1.76 1.23-3.927.383-5.855-.542-1.235-1.954-3.5-3.452-3.617-.062-.004-.117.048-.135.103l-.046.146c-.01.035.023.06.054.054.79-.138 2.44 3.117 2.673 3.695.68 1.697.575 3.37-.386 4.944-.07.114-.082.223-.068.325-.01.01-.02.023-.028.034-.43-.857-.644-2.428-.73-2.74-.014-.047-.05-.063-.07-.1.035-.09.08-.162.11-.256.627-2.12-1.317-2.21-2.784-1.38-1.043.592-2.468 2.203-3.14 3.87-.683.024-1.35-.01-2.04.164-.66.167-1.132.474-1.486.86-.005-.568-.01-1.136.01-1.702.298-.02.592-.06.89-.115.016.07.026.137.044.205.138.522 1.01.435.965-.13-.008-.112 0-.217-.004-.327 3.724-1.21 6.745-5.03 4.095-8.91-.127-.185-.407-.31-.616-.16-1.458 1.047-2.566 2.327-3.324 3.778-.406-.32-.86-.582-1.342-.802-.122-.305-.487-.464-.735-.306-1.15-.378-2.385-.477-3.457-.205-2.29.582-2.745 3.227-1.387 4.963 1 1.28 2.386 1.887 3.855 2.008-.07 1.83-.022 3.667.18 5.532.07.65 1.09.67 1.035 0-.014-.172-.002-.32 0-.475.028.027.066.038.095.063l.01.014.002.002c.03.034.054.07.083.107.098.12.222.167.346.165 2.485 1.57 6.564.22 8.22-1.97.073-.095-.066-.215-.16-.158-2.043 1.243-5.707 2.93-7.804.875-.012-.012-.026-.01-.038-.02-.124-.212-.242-.43-.35-.647.515-.9 1.465-1.378 2.598-1.707-.137.803-.04 1.57.442 2.186 1.758 2.247 3.735-.737 4.888-3.087.166.864.452 1.69 1.192 2.075.993.52 1.79.115 2.262-.78.253-.48-.385-1.035-.78-.6zm-30.71-1.405c-.41-.76-.73-1.39-1.435-1.888-.047-.033-.094-.03-.142-.04-1.1-1.36-2.156-2.76-3.065-4.255-.29-.477-1.005-.16-.886.375.335 1.51.743 2.993 1.187 4.467-.535-.692-1.085-1.373-1.6-2.082-.037-.053-.12-.007-.087.05.915 1.604 1.76 3.232 2.604 4.872.26.5 1.11.155.92-.388-.493-1.42-.928-2.855-1.333-4.3.878 1.298 1.792 2.57 2.795 3.786 0 .003.002.006.004.01v-.002c.034.04.06.083.094.122.45.54 1.252-.15.94-.726zm13.198-17.929c.04.862.052 1.568.47 2.324.028.05.072.068.11.096.4 1.704.744 3.422.912 5.164.054.557.835.582.96.05.355-1.505.633-3.02.874-4.54.18.856.378 1.707.533 2.57.012.064.107.06.102-.008-.128-1.84-.18-3.674-.23-5.52-.015-.562-.932-.62-.998-.05-.17 1.493-.404 2.975-.667 4.452-.226-1.55-.497-3.092-.87-4.624l-.002-.01c-.013-.05-.02-.1-.032-.15-.168-.682-1.19-.41-1.162.245zm-1.428 5.388c-.272 1.153-2.56 1.767-3.417 2.296-1.145.706-1.707 1.108-2.95 1.414-1.046.257-1.703.787-2.23 1.5-.225-.74-.676-1.31-1.543-1.068-1.298.363-1.16 3.117-1.016 4.806-.33-.294-.616-.638-.83-1.056-.028-.05-.11-.03-.108.03.043 1.152.33 1.755 1.195 2.524.358.316.95.107.956-.396.008-.784-.11-1.813.032-2.584.086-.47.484-1.87.312-.325-.064.578.863.82 1.106.3.92-1.978 3.848-2.817 5.762-3.974 1.392-.84 3.677-1.293 4-3.118.144-.82-1.07-1.183-1.268-.35zm14.27-9.811c-.396.158-3.226 2.38-3.043 2.687-.22-.372-.64-.42-.935-.103-.247.268-.462.537-.652.82l-.266-.516c-.146-.282-.497-.314-.702-.075-.75.876-1.412 1.86-1.83 2.938-.132-.307-.233-.626-.283-.966-.017-.073-.132-.055-.116.018.144.643.223 1.143.112 1.823-.07.43.538.535.707.176.488-1.033.957-1.997 1.608-2.9.097.264.192.53.287.793.122.338.69.423.876.096.233-.408.49-.77.773-1.122.3.133.647.114 1.03-.13 1.023-.656 2.43-1.94 2.943-3.05.145-.317-.22-.604-.51-.488zm-85.59 30.22l.002 5.362c0 1.028.73 2.29 1.62 2.803l7.672 4.432c.89.513 1.617.092 1.616-.936l-.01-6.43 8.67-35.295c.506-1.994-.55-2.81-2.35-1.817l-6.51 3.592c-1.8.993-3.44 1.956-3.647 2.14-.206.18-.922 2.445-1.438 4.435l-4.757 18.347c-.516 1.99-.91 2.906-.868 3.365z" stroke="#33475C" stroke-width="5"/>
        <path d="M47.354 127.202l.004 5.36c0 .698.55 1.647 1.15 1.994l7.673 4.434c.098.055.17.08.213.088-.013-.028.002-.1.002-.212l-.01-6.433c0-.076.01-.15.028-.224l8.67-35.294c.18-.72.063-1.028.024-1.066-.045-.026-.376-.062-1.017.29l-6.51 3.593c-1.722.95-2.99 1.7-3.39 1.964-.21.48-.75 2.143-1.24 4.028l-4.756 18.347c-.212.81-.402 1.445-.552 1.947-.142.476-.29.97-.292 1.114l.004.068zm9.083 13.75c-.387 0-.792-.115-1.188-.343l-7.675-4.435c-1.17-.673-2.086-2.26-2.086-3.612l-.005-5.328c-.026-.438.117-.915.367-1.752.144-.484.328-1.097.53-1.882l4.758-18.346c.52-2 1.24-4.472 1.725-4.9.452-.4 3.678-2.182 3.815-2.257l6.51-3.592c1.64-.906 2.624-.473 3.062-.133.438.34 1.106 1.18.642 2.997l-8.64 35.175.01 6.317c.002.833-.34 1.51-.938 1.855-.27.157-.573.235-.89.235zM174.73 88.02l-7.947-4.59c-.522-.3-1.156-.33-1.705-.083-.55.248-.945.747-1.063 1.336l-8.07 40.342c-.168 1.014-.037 2.288-.037 3.316v3.65c0 1.027.723 1.438 1.605.91l10.878-6.49c.884-.527 1.606-1.8 1.606-2.827v-3.55c0-1.026.165-2.69.366-3.7l5.267-26.327c.156-.787-.204-1.584-.9-1.986z" stroke="#33475C" stroke-width="5"/>
        <path d="M165.847 84.117c-.13 0-.263.027-.385.084-.274.123-.473.373-.53.67l-8.07 40.34c-.098.59-.07 1.372-.043 2.13.012.348.023.685.023 1v3.65c0 .095.01.164.022.208.023-.025.087-.05.167-.098l10.88-6.493c.602-.358 1.15-1.323 1.15-2.024v-3.55c0-1.078.17-2.82.383-3.88l5.268-26.328c.078-.394-.103-.794-.45-.995l-7.95-4.59c-.143-.08-.304-.123-.466-.123zm-9.065 49.948c-.306 0-.6-.074-.863-.222-.602-.342-.947-1.017-.947-1.853v-3.65c0-.294-.01-.61-.023-.933-.03-.85-.06-1.73.073-2.534l8.075-40.37c.177-.886.774-1.635 1.594-2.005.82-.376 1.78-.325 2.56.126l7.946 4.59h.002c1.04.6 1.58 1.797 1.345 2.976l-5.268 26.327c-.188.945-.346 2.557-.346 3.517v3.55c0 1.37-.887 2.93-2.062 3.63l-10.877 6.49c-.4.24-.815.36-1.208.36zm-93.887-36.14c.1-.39.108-.778.046-1.15l-5.358 2.958c-.39.216-.75.417-1.09.61l-7.198 28.237-.04 6.408 5.052 2.92c-.016-1.688-.055-6.466.033-6.416l8.555-33.567z" stroke="#33475C" stroke-width="5"/>
        <path stroke="#33475C" stroke-width="5" d="M167.71 85.047l-7.819 39.146.002 6.2 6.145-3.668.078-5.067 6.722-33.65z"/>
        <path stroke="#33475C" stroke-width="5" d="M169.11 118.85l-12.6 7.267.284 6.566 13.135-7.397zM56.89 132.994l-10.473-6.426v8.383l10.908 5.767z"/>
        <path d="M194.843 108.5h.003v-5.59c-.008.67-.45 1.34-1.333 1.85l-1.65.953-63.333-36.565c-1.78-1.028-4.694-1.028-6.475 0l-87.85 50.72-1.65-.953c-.856-.495-1.29-1.142-1.322-1.794h-.013l.006 5.524h.002c-.02.693.418 1.39 1.328 1.915l64.983 37.516c1.78 1.028 4.693 1.028 6.474 0l89.5-51.672c.905-.523 1.345-1.215 1.33-1.904" fill="#7B97B7"/>
        <path d="M32.156 119.764l.004 2.88c-.01.39.304.783.863 1.107l64.984 37.518c1.5.866 4.04.868 5.54 0l89.5-51.673c.556-.32.87-.712.86-1.073v-.022l.003-2.888-1.58.91c-.287.165-.645.167-.934 0l-63.333-36.566c-1.5-.865-4.04-.867-5.54 0l-87.85 50.72c-.288.17-.646.17-.934 0l-1.584-.912zm68.62 44.022c-1.333 0-2.665-.3-3.704-.9l-64.984-37.518c-1.17-.677-1.827-1.68-1.796-2.75l-.007-5.495c0-.248.1-.488.274-.663.525-.527 1.57-.128 1.605.617.018.35.33.725.858 1.028l1.183.684 87.382-50.45c2.078-1.204 5.332-1.202 7.41 0l62.866 36.294 1.183-.683c.545-.313.86-.698.865-1.054.007-.51.423-.922.934-.922h.006c.515.004.93.422.93.935l-.005 5.59c.017 1.057-.637 2.044-1.796 2.714l-89.5 51.672c-1.037.6-2.372.9-3.704.9z" fill="#33475C"/>
        <path d="M128.53 63.505c-1.78-1.028-4.694-1.028-6.475 0l-89.5 51.673c-1.78 1.028-1.78 2.71 0 3.738l64.983 37.518c1.78 1.028 4.695 1.028 6.475 0l89.5-51.673c1.78-1.027 1.78-2.71 0-3.737L128.53 63.505z" fill="#98ACC3"/>
        <path d="M125.294 63.664c-1.01 0-2.02.217-2.77.65l-89.5 51.67c-.552.32-.868.708-.868 1.064 0 .354.316.74.867 1.058l64.984 37.518c1.5.866 4.04.867 5.54 0l89.5-51.67c.55-.32.867-.706.867-1.062 0-.356-.316-.74-.867-1.06l-64.984-37.518c-.75-.433-1.76-.65-2.77-.65m-24.517 94.478c-1.332 0-2.665-.3-3.704-.9L32.09 119.724c-1.146-.66-1.803-1.636-1.803-2.676 0-1.04.655-2.017 1.802-2.68l89.5-51.67c2.076-1.204 5.33-1.202 7.408 0l64.983 37.517c1.146.66 1.803 1.637 1.803 2.677s-.657 2.017-1.802 2.678l-89.498 51.672c-1.04.6-2.373.9-3.706.9" fill="#33475C"/>
        <path fill="#EBF0F7" d="M125.293 70.27l56.505 32.622-81.022 46.778-56.504-32.623"/>
        <path d="M46.14 117.046l54.636 31.545 79.152-45.698-54.634-31.545-79.154 45.7zm54.636 33.56c-.16 0-.323-.043-.467-.127l-56.506-32.625c-.29-.166-.468-.475-.468-.81 0-.333.18-.642.468-.808l81.023-46.778c.288-.168.646-.168.934 0l56.504 32.624c.29.166.468.474.468.808 0 .334-.18.643-.468.81l-81.02 46.777c-.145.083-.307.125-.468.125z" fill="#33475C"/>
        <path d="M106.994 104.043h-1.755l.263-1.14 1.49.307v.833zm10.56-7.616c-3.365 1.786-6.705 3.696-10.016 5.667-.677-.067-1.352-.15-2.015-.288.09-.325.17-.653.214-.99.013-.096-.106-.13-.17-.08-.307.227-.543.54-.744.885-.496-.122-.995-.228-1.484-.39-.473-.157-.716.575-.244.73.46.154.898.34 1.317.556-.19.564-.297 1.15-.37 1.69-3.545 2.188-7.044 4.45-10.442 6.778-.067.046-.015.16.06.117 3.56-1.964 7.01-4.11 10.46-6.264.068.064.154.114.246.12l3.38.248c.1.008.18-.024.243-.073.146.023.305-.034.338-.197.158-.773.13-1.575.156-2.362.004-.138-.078-.242-.186-.314 3.094-1.915 6.205-3.802 9.416-5.517.198-.108.04-.42-.16-.313zm-20.978 43.408c-.16 0-.318-.084-.405-.234-.127-.22-.05-.508.172-.638l22.552-13.02c.218-.127.506-.053.64.172.127.223.05.51-.172.64l-22.552 13.02c-.073.04-.154.06-.234.06m45.868-26.482c-.16 0-.318-.084-.405-.234-.128-.223-.05-.51.17-.64l22.54-13.01c.216-.128.506-.055.638.17.127.224.05.51-.172.64l-22.537 13.01c-.074.043-.155.063-.235.063M93.37 137.54c-.162 0-.32-.085-.406-.235-.128-.222-.05-.51.17-.64l22.696-13.1c.22-.13.505-.056.64.17.126.223.05.51-.173.64l-22.694 13.102c-.073.042-.154.062-.234.062m46.011-26.564c-.16 0-.318-.084-.405-.234-.128-.22-.05-.508.17-.638l22.54-13.01c.216-.126.504-.055.638.17.127.224.05.51-.172.64l-22.536 13.01c-.073.043-.154.063-.234.063M108.45 90.815c-.744.63-1.332 1.504-1.884 2.386.027-.53.024-1.064-.038-1.61-.04-.344-.527-.57-.72-.194-.622 1.2-1.246 2.402-1.84 3.617.06-.678.247-1.328.5-2.01.012-.027-.028-.05-.047-.028-.82.892-1.082 2.11-1.034 3.295.012.302.416.428.576.157.643-1.087 1.234-2.205 1.82-3.324-.032.598-.113 1.192-.27 1.79-.122.463.483.68.74.313.904-1.29 2.148-2.62 2.675-4.114.103-.29-.28-.444-.476-.277M80.133 113.59c-.055.266-.143.52-.208.782-.127-.184-.22-.56-.256-1.233l.89-2.584-.427 3.033m-4.94 1.395c-.705 1.46-.914-3.102-.914-3.102 1.303.443 1.615 1.642.912 3.102m24.47-18.444c-.156.21-2.792 3.66-2.9 3.48-.23-.373-.872-.334-.977.13-.697 3.067-1.007-.393-1.205-1.245-.1-.43-.707-.482-.92-.12-.495.832-1.58 4.025-2.275 4.498-.81.55.588 1.42-.895.133-.304-.264-.69-.136-.834.22-.512 1.34-1.102 2.64-1.77 3.907-.168-.998-.246-2.003-.234-3.015-.013-.38-.556-.7-.833-.345-.845 1.08-1.58 2.087-2.182 3.33-.296.61-1.35 3.925-1.055 1.192.06-.544-.823-.65-.947-.128-.258 1.084-.515 2.163-.873 3.22-.084.247-.223.603-.387.975.2-1.463.3-2.8.335-3.822.018-.48-.6-.706-.928-.385-2.195 2.16-2.675 4.894-1.348 7.555-.223.667-.466 1.328-.738 1.984-.296.712-.477 1.247-.653 1.653l.006.002s-1.145 3.057-3.13 2.53c-1.874-.495-2.42-3.763-2.478-4.137l-.01-.06v-.013c-.058-.414-.074-.916-.074-1.55-.036-4.038 1.422-4.215 1.422-4.215.018 1.242.222 2.47.667 3.845.087.268.372.382.622.253 2.173-1.13 1.945-5.407-.787-5.988-.035-.007-.064-.004-.098-.01.032-.488.092-.976.21-1.468.023-.145-.192-.212-.225-.063-.12.525-.193 1.014-.26 1.502-2.725-.175-2.7 4.603-2.553 6.278.19 2.162 1 9.203 4.655 7.48 2.3-1.084 3.71-4.08 4.555-7.273.036-.033.078-.056.103-.104.978-1.904 1.734-3.772 2.325-5.76.117.208.253.42.427.655.23.31.778.326.884-.115.152-.633 1.457-5.648 2.42-5.49-.05-.01.418 3.298.396 3.156.068.43.708.464.9.12.21-.382 2.12-5.045 2.84-4.033.255.36.767.303.916-.12.16-.452 1.53-4.634 2.018-4.576.255.03.776 2.06.906 2.443.145.43.702.51.95.124.806-1.25 1.134-1.053.396-2.263.136.223.362.282.604.246 1.9-.286 2.913-2.68 3.956-4.056.426-.56-.526-1.11-.945-.553m33.037-11.71c-.18.075-6.36 1.253-7.157.46-.152-.15-.453-.178-.6 0-.17.208-1.65 2.204-1.866 2.08-.27-.153.51-4.308.545-4.596.047-.4-.514-.466-.698-.19-.538.81-3.515 5.627-3.92 5.56.345.057-.057-2.685-.073-2.802-.036-.248-.432-.35-.585-.154-.995 1.278-1.955 2.573-2.83 3.938-1.632 2.546-.73 1.64-.122-.87.5-2.058 1.946-4.888.52-6.78-.064-.084-.177-.137-.277-.072-1.47.943-2.5 1.973-3.304 3.384l-.098.13-.02.095c-.134.25-.278.485-.4.762-.062.143.137.27.215.126l.134-.26c.35-.658 1.366-2.427 2.24-2.578 1.65-.044 1.25 2.056.988 3.028l-1.635 6.047c-.1.366.427.598.617.26.558-.988 1.123-1.968 1.737-2.923.24-.386.492-.763.755-1.133.48-1.047.86-.723 1.146.973-.084.32.36.634.595.347 1.158-1.422 2.19-3.07 3.41-4.43.395-.442.53-1.155.664-.925.284.488-.513 4.013-.588 4.597-.043.34.472.537.685.283.815-.972 1.637-2.332 2.815-2.675.215-.063 1.108.22 1.482.18 1.987-.214 4.12-.25 5.88-1.248.32-.182.1-.764-.258-.614m-8.973 37.98c-.96-1.126-1.728-2.024-1.49-3.626.018-.108-.142-.16-.167-.046-.305 1.335.088 3.294 1.48 3.902.15.066.29-.097.177-.23m6.07-12.993c-1.44-.78-4.604.087-5.475 1.474-.02.032.014.076.05.065.895-.283 1.637-.86 2.578-1.067.954-.21 1.874.013 2.803-.138.158-.026.174-.264.044-.334" fill="#33475C"/>
        <path d="M131.82 118.998c-.437.19-.873.377-1.31.566.51-1.29 1.523-2.61 2.17-2.652.87.986.582 1.682-.86 2.086m-.587 3.045c-.897-.016-1.126-.666-1-1.495.892-.213 1.79-.442 2.568-.82-.524 1.137-1.165 2.323-1.567 2.315m-7.995-4.39s-2.354-1.28-2.354-2.9c0-1.618 2.022-1.662 2.022-1.662l1.764.276c.147.036.3.076.452.115-.297 1.554-.503 3.103-.606 4.653-.488-.054-.938-.186-1.278-.48m2.627-3.813l1.127.575s-.547 2.596-.564 3.718c0 0-.925.15-1.035 0 0 0 .02-2.83.472-4.293m2.087.914c.53.47.896 1.095.943 1.957.004.073.036.125.08.16-.473.286-1.024.555-1.62.782.05-1.004.24-1.962.597-2.898m.618-1.325c.406-.724 1.673-2.71 2.852-1.768l.04 2.208c-.172.976-.662 1.733-1.473 2.272-.17.163-.404.338-.668.515-.052-.954-.477-1.784-1.1-2.483.114-.248.21-.498.348-.745m8.11 7.31c-.105.114-.202.177-.296.218.05-.07.078-.156.12-.23.037-.033.076-.062.108-.11 1.196-1.76 1.23-3.927.383-5.855-.542-1.235-1.954-3.5-3.452-3.617-.062-.004-.117.048-.135.103l-.046.146c-.01.035.023.06.054.054.79-.138 2.44 3.117 2.673 3.695.68 1.697.575 3.37-.386 4.944-.07.114-.082.223-.068.325-.01.01-.02.023-.028.034-.43-.857-.644-2.428-.73-2.74-.014-.047-.05-.063-.07-.1.035-.09.08-.162.11-.256.627-2.12-1.317-2.21-2.784-1.38-1.043.592-2.468 2.203-3.14 3.87-.683.024-1.35-.01-2.04.164-.66.167-1.132.474-1.486.86-.005-.568-.01-1.136.01-1.702.298-.02.592-.06.89-.115.016.07.026.137.044.205.138.522 1.01.435.965-.13-.008-.112 0-.217-.004-.327 3.724-1.21 6.745-5.03 4.095-8.91-.127-.185-.407-.31-.616-.16-1.458 1.047-2.566 2.327-3.324 3.778-.406-.32-.86-.582-1.342-.802-.122-.305-.487-.464-.735-.306-1.15-.378-2.385-.477-3.457-.205-2.29.582-2.745 3.227-1.387 4.963 1 1.28 2.386 1.887 3.855 2.008-.07 1.83-.022 3.667.18 5.532.07.65 1.09.67 1.035 0-.014-.172-.002-.32 0-.475.028.027.066.038.095.063l.01.014.002.002c.03.034.054.07.083.107.098.12.222.167.346.165 2.485 1.57 6.564.22 8.22-1.97.073-.095-.066-.215-.16-.158-2.043 1.243-5.707 2.93-7.804.875-.012-.012-.026-.01-.038-.02-.124-.212-.242-.43-.35-.647.515-.9 1.465-1.378 2.598-1.707-.137.803-.04 1.57.442 2.186 1.758 2.247 3.735-.737 4.888-3.087.166.864.452 1.69 1.192 2.075.993.52 1.79.115 2.262-.78.253-.48-.385-1.035-.78-.6m-30.712-1.404c-.41-.76-.73-1.39-1.435-1.888-.047-.033-.094-.03-.142-.04-1.1-1.36-2.156-2.76-3.065-4.255-.29-.477-1.005-.16-.886.375.335 1.51.743 2.993 1.187 4.467-.535-.692-1.085-1.373-1.6-2.082-.037-.053-.12-.007-.087.05.915 1.604 1.76 3.232 2.604 4.872.26.5 1.11.155.92-.388-.493-1.42-.928-2.855-1.333-4.3.878 1.298 1.792 2.57 2.795 3.786 0 .003.002.006.004.01v-.002c.034.04.06.083.094.122.45.54 1.252-.15.94-.726m13.202-17.93c.04.862.052 1.568.47 2.324.028.05.072.068.11.096.4 1.704.744 3.422.912 5.164.054.557.835.582.96.05.355-1.505.633-3.02.874-4.54.18.856.378 1.707.533 2.57.012.064.107.06.102-.008-.128-1.84-.18-3.674-.23-5.52-.015-.562-.932-.62-.998-.05-.17 1.493-.404 2.975-.667 4.452-.226-1.55-.497-3.092-.87-4.624l-.002-.01c-.013-.05-.02-.1-.032-.15-.168-.682-1.19-.41-1.162.245m-1.428 5.389c-.272 1.153-2.56 1.767-3.417 2.296-1.145.706-1.707 1.108-2.95 1.414-1.046.257-1.703.787-2.23 1.5-.225-.74-.676-1.31-1.543-1.068-1.298.363-1.16 3.117-1.016 4.806-.33-.294-.616-.638-.83-1.056-.028-.05-.11-.03-.108.03.043 1.152.33 1.755 1.195 2.524.358.316.95.107.956-.396.008-.784-.11-1.813.032-2.584.086-.47.484-1.87.312-.325-.064.578.863.82 1.106.3.92-1.978 3.848-2.817 5.762-3.974 1.392-.84 3.677-1.293 4-3.118.144-.82-1.07-1.183-1.268-.35m14.269-9.81c-.396.158-3.226 2.38-3.043 2.687-.22-.372-.64-.42-.935-.103-.247.268-.462.537-.652.82l-.266-.516c-.146-.282-.497-.314-.702-.075-.75.876-1.412 1.86-1.83 2.938-.132-.307-.233-.626-.283-.966-.017-.073-.132-.055-.116.018.144.643.223 1.143.112 1.823-.07.43.538.535.707.176.488-1.033.957-1.997 1.608-2.9.097.264.192.53.287.793.122.338.69.423.876.096.233-.408.49-.77.773-1.122.3.133.647.114 1.03-.13 1.023-.656 2.43-1.94 2.943-3.05.145-.317-.22-.604-.51-.488" fill="#33475C"/>
        <path d="M46.42 127.202l.002 5.362c0 1.028.73 2.29 1.62 2.803l7.672 4.432c.89.513 1.617.092 1.616-.936l-.01-6.43 8.67-35.295c.506-1.994-.55-2.81-2.35-1.817l-6.51 3.592c-1.8.993-3.44 1.956-3.647 2.14-.206.18-.922 2.445-1.438 4.435l-4.757 18.347c-.516 1.99-.91 2.906-.868 3.365" fill="#FF7A53"/>
        <path d="M47.354 127.202l.004 5.36c0 .698.55 1.647 1.15 1.994l7.673 4.434c.098.055.17.08.213.088-.013-.028.002-.1.002-.212l-.01-6.433c0-.076.01-.15.028-.224l8.67-35.294c.18-.72.063-1.028.024-1.066-.045-.026-.376-.062-1.017.29l-6.51 3.593c-1.722.95-2.99 1.7-3.39 1.964-.21.48-.75 2.143-1.24 4.028l-4.756 18.347c-.212.81-.402 1.445-.552 1.947-.142.476-.29.97-.292 1.114l.004.068zm9.083 13.75c-.387 0-.792-.115-1.188-.343l-7.675-4.435c-1.17-.673-2.086-2.26-2.086-3.612l-.005-5.328c-.026-.438.117-.915.367-1.752.144-.484.328-1.097.53-1.882l4.758-18.346c.52-2 1.24-4.472 1.725-4.9.452-.4 3.678-2.182 3.815-2.257l6.51-3.592c1.64-.906 2.624-.473 3.062-.133.438.34 1.106 1.18.642 2.997l-8.64 35.175.01 6.317c.002.833-.34 1.51-.938 1.855-.27.157-.573.235-.89.235z" fill="#33475C"/>
        <path d="M174.73 88.02l-7.947-4.59c-.522-.3-1.156-.33-1.705-.083-.55.248-.945.747-1.063 1.336l-8.07 40.342c-.168 1.014-.037 2.288-.037 3.316v3.65c0 1.027.723 1.438 1.605.91l10.878-6.49c.884-.527 1.606-1.8 1.606-2.827v-3.55c0-1.026.165-2.69.366-3.7l5.267-26.327c.156-.787-.204-1.584-.9-1.986" fill="#FF7A53"/>
        <path d="M165.847 84.117c-.13 0-.263.027-.385.084-.274.123-.473.373-.53.67l-8.07 40.34c-.098.59-.07 1.372-.043 2.13.012.348.023.685.023 1v3.65c0 .095.01.164.022.208.023-.025.087-.05.167-.098l10.88-6.493c.602-.358 1.15-1.323 1.15-2.024v-3.55c0-1.078.17-2.82.383-3.88l5.268-26.328c.078-.394-.103-.794-.45-.995l-7.95-4.59c-.143-.08-.304-.123-.466-.123m-9.065 49.948c-.306 0-.6-.074-.863-.222-.602-.342-.947-1.017-.947-1.853v-3.65c0-.294-.01-.61-.023-.933-.03-.85-.06-1.73.073-2.534l8.075-40.37c.177-.886.774-1.635 1.594-2.005.82-.376 1.78-.325 2.56.126l7.946 4.59h.002c1.04.6 1.58 1.797 1.345 2.976l-5.268 26.327c-.188.945-.346 2.557-.346 3.517v3.55c0 1.37-.887 2.93-2.062 3.63l-10.877 6.49c-.4.24-.815.36-1.208.36" fill="#33475C"/>
        <path d="M62.895 97.925c.1-.39.108-.778.046-1.15l-5.358 2.958c-.39.216-.75.417-1.09.61l-7.198 28.237-.04 6.408 5.052 2.92c-.016-1.688-.055-6.466.033-6.416l8.555-33.567zM167.71 85.047l-7.819 39.146.002 6.2 6.145-3.668.078-5.067 6.722-33.65" fill="#F7C364"/>
        <path fill="#33475C" opacity=".25" d="M169.11 118.85l-12.6 7.267.284 6.566 13.135-7.397M56.89 132.994l-10.473-6.426v8.383l10.908 5.767"/>
        <path d="M141.805 76.906c-1.548 0-2.803-1.254-2.804-2.802l-.01-33.08c0-1.55 1.254-2.806 2.803-2.806 1.55 0 2.804 1.254 2.805 2.802l.01 33.08c.002 1.55-1.253 2.806-2.802 2.806z" stroke="#33475C" stroke-width="5"/>
        <path d="M141.794 39.153c-.5 0-.97.195-1.323.548-.352.355-.545.824-.545 1.322l.01 33.083c0 1.03.84 1.867 1.87 1.867 1.03 0 1.87-.84 1.87-1.87l-.012-33.082c-.002-1.03-.84-1.867-1.87-1.867zm.01 38.688c-2.06 0-3.737-1.675-3.737-3.735l-.01-33.08c-.003-1 .386-1.938 1.092-2.646.704-.707 1.644-1.096 2.642-1.096 2.06 0 3.738 1.676 3.74 3.734l.01 33.083c0 2.063-1.676 3.74-3.737 3.74zM71.33 56.247V77.34c0 4.21 2.767 8.42 8.3 11.612 11.062 6.388 29.166 6.388 40.23 0 5.53-3.193 8.297-7.403 8.297-11.613V56.246H71.33z" stroke="#33475C" stroke-width="5"/>
        <path d="M72.266 57.182V77.34c0 4.05 2.78 7.888 7.83 10.803 10.834 6.254 28.46 6.254 39.295 0 5.05-2.915 7.83-6.752 7.83-10.804V57.18H72.267zm27.477 37.494c-7.455 0-14.908-1.637-20.583-4.915-5.65-3.26-8.763-7.673-8.763-12.42V56.246c0-.516.418-.934.934-.934h56.826c.517 0 .935.418.935.934V77.34c0 4.75-3.112 9.16-8.765 12.42-5.673 3.277-13.13 4.916-20.582 4.916z" stroke="#33475C" stroke-width="5"/>
        <path d="M154.057 47.79v-5.008l-5.19-3.222-3.752 1.42L104.6 17.59c-2.67-1.543-7.042-1.543-9.713 0L53.49 41.49l-8.06 1.295v5.005c0 1.016.668 2.033 2.004 2.804L94.888 77.99c2.67 1.543 7.04 1.543 9.712 0l47.454-27.396c1.335-.77 2.003-1.788 2.003-2.804z" stroke="#33475C" stroke-width="5"/>
        <path d="M46.365 43.58v4.21c0 .703.56 1.43 1.537 1.995l47.453 27.397c2.38 1.374 6.4 1.372 8.778 0l47.453-27.397c.975-.564 1.536-1.29 1.536-1.995v-4.488l-4.356-2.705-3.32 1.257c-.26.1-.555.077-.798-.065l-40.515-23.393c-2.38-1.373-6.398-1.373-8.778 0l-41.397 23.9c-.098.06-.206.098-.32.116l-7.273 1.168zm53.378 36.513c-1.914 0-3.83-.43-5.322-1.294L46.968 51.402c-1.593-.92-2.47-2.204-2.47-3.613v-5.005c0-.458.333-.85.786-.923l7.89-1.27L94.422 16.78c2.985-1.727 7.663-1.725 10.648 0l40.13 23.17 3.336-1.265c.27-.102.577-.073.824.08l5.19 3.222c.273.17.44.47.44.795v5.008c0 1.41-.875 2.693-2.47 3.613L105.07 78.8c-1.493.86-3.41 1.293-5.325 1.293z" stroke="#33475C" stroke-width="5"/>
        <path d="M47.434 45.588c-2.67-1.542-2.67-4.065 0-5.607l47.454-27.397c2.67-1.542 7.04-1.542 9.712 0l47.454 27.398c2.67 1.543 2.67 4.066 0 5.608L104.6 72.985c-2.67 1.542-7.04 1.542-9.712 0L47.434 45.588z" stroke="#33475C" stroke-width="5"/>
        <path d="M99.743 12.363c-1.6 0-3.198.343-4.388 1.03L47.902 40.79c-.977.565-1.537 1.29-1.537 1.993 0 .706.56 1.434 1.537 1.998l47.453 27.397c2.378 1.374 6.4 1.372 8.778 0l47.453-27.397c.977-.563 1.535-1.29 1.535-1.997 0-.703-.557-1.428-1.534-1.992l-47.453-27.398c-1.19-.686-2.79-1.03-4.39-1.03zm0 62.725c-1.915 0-3.83-.43-5.323-1.293L46.967 46.397c-1.593-.92-2.47-2.203-2.47-3.614 0-1.41.877-2.69 2.47-3.61l47.453-27.4c2.985-1.723 7.663-1.723 10.647.002l47.454 27.398c1.592.92 2.47 2.2 2.47 3.61 0 1.41-.876 2.694-2.47 3.614l-47.453 27.398c-1.493.86-3.41 1.293-5.324 1.293z" stroke="#33475C" stroke-width="5"/>
        <path d="M99.746 44.947c-.97 0-1.914-.505-2.433-1.407-.772-1.34-.31-3.054 1.032-3.826l28.078-16.153c1.346-.773 3.057-.31 3.83 1.033.77 1.34.308 3.055-1.033 3.826l-28.08 16.152c-.44.255-.92.374-1.394.374z" stroke="#33475C" stroke-width="5"/>
        <path d="M127.818 24.123c-.316 0-.635.078-.93.248L98.81 40.525c-.893.513-1.2 1.657-.687 2.55.495.858 1.685 1.19 2.55.688l28.08-16.153c.894-.514 1.202-1.658.688-2.552-.344-.6-.974-.935-1.622-.935zM99.746 45.88c-1.336 0-2.58-.716-3.243-1.874-.5-.865-.628-1.872-.37-2.836.26-.964.88-1.77 1.746-2.267l28.078-16.153c1.783-1.022 4.074-.412 5.104 1.377 1.027 1.785.41 4.076-1.377 5.103l-28.08 16.153c-.563.325-1.207.498-1.86.498z" stroke="#33475C" stroke-width="5"/>
        <path d="M99.744 36.896c-6.29 0-6.542 5.247-6.542 5.247 0 .97.637 1.94 1.91 2.674 2.548 1.47 6.716 1.47 9.263 0 1.274-.735 1.91-1.704 1.91-2.674 0 0-.252-5.247-6.54-5.247z" stroke="#33475C" stroke-width="5"/>
        <path d="M99.743 37.83c-5.2 0-5.582 3.916-5.61 4.364.003.604.528 1.283 1.446 1.814 2.257 1.305 6.07 1.303 8.328 0 .917-.53 1.442-1.21 1.442-1.866-.025-.396-.408-4.31-5.607-4.31zm0 9.035c-1.834 0-3.67-.413-5.098-1.24-1.533-.885-2.38-2.12-2.38-3.483.005-.105.38-6.18 7.478-6.18 7.1 0 7.473 6.075 7.475 6.135.002 1.405-.842 2.643-2.375 3.528-1.43.827-3.266 1.24-5.1 1.24zm37.845 26.995c.36 1.404.337 3.382 2.56 4.02 0 0 8.584.8 7.99-3.133 0 0-.758-.386-1.347-3.817-.362-2.12-10.212-1.02-9.202 2.93z" stroke="#33475C" stroke-width="5"/>
        <path d="M144.107 70.79c-1.265 0-2.966.246-4.32.957-1.563.825-1.36 1.618-1.293 1.88.064.248.117.51.17.782.27 1.362.498 2.216 1.743 2.574 1.844.153 5.452.017 6.537-1.13.19-.2.282-.42.29-.692-.455-.57-.962-1.737-1.364-4.075-.164-.168-.85-.296-1.763-.296zm-2.214 8.098c-.93 0-1.632-.058-1.83-.076-2.576-.724-2.97-2.72-3.232-4.04-.046-.237-.092-.467-.147-.683-.295-1.154.064-2.273 1.01-3.15 1.95-1.805 6.294-2.44 8.475-1.703 1.124.38 1.462 1.046 1.546 1.535.454 2.655.99 3.235.996 3.24.27.138.31.296.353.597.148.972-.117 1.846-.76 2.528-1.403 1.484-4.426 1.75-6.41 1.75z" stroke="#33475C" stroke-width="5"/>
        <path d="M139.56 75.334s3.264-3.694 8.578-.588c5.315 3.106 8.965 3.712 8.965 3.712s.52 9.335-6.488 9.655c0 0-4.126-.915-8.653-5.51-4.526-4.594-2.4-7.27-2.4-7.27z" stroke="#33475C" stroke-width="5"/>
        <path d="M140.287 75.924c-.168.263-1.292 2.336 2.342 6.024 3.876 3.933 7.412 5.043 8.076 5.224 1.426-.092 2.548-.612 3.43-1.583 1.72-1.9 2-5 2.037-6.38-1.378-.345-4.476-1.302-8.504-3.657-4.35-2.54-7.05.028-7.383.37zm10.328 13.124c-.068 0-.137-.007-.203-.022-.18-.04-4.448-1.03-9.116-5.768-5.048-5.122-2.575-8.37-2.467-8.504l.03-.038c.04-.044 3.84-4.233 9.75-.776 5.075 2.964 8.614 3.59 8.65 3.596.428.073.753.434.777.87.012.218.264 5.36-2.51 8.432-1.243 1.374-2.88 2.12-4.87 2.208-.013.002-.028.002-.042.002z" stroke="#33475C" stroke-width="5"/>
        <path d="M141.805 76.906c-1.548 0-2.803-1.254-2.804-2.802l-.01-33.08c0-1.55 1.254-2.806 2.803-2.806 1.55 0 2.804 1.254 2.805 2.802l.01 33.08c.002 1.55-1.253 2.806-2.802 2.806z" fill="#FF7A53"/>
        <path d="M141.794 39.153c-.5 0-.97.195-1.323.548-.352.355-.545.824-.545 1.322l.01 33.083c0 1.03.84 1.867 1.87 1.867 1.03 0 1.87-.84 1.87-1.87l-.012-33.082c-.002-1.03-.84-1.867-1.87-1.867m.012 38.688c-2.06 0-3.738-1.675-3.738-3.735l-.01-33.08c-.003-1 .386-1.938 1.092-2.646.704-.707 1.644-1.096 2.642-1.096 2.06 0 3.738 1.676 3.74 3.734l.01 33.083c0 2.063-1.676 3.74-3.737 3.74" fill="#33475C"/>
        <path d="M71.33 56.247V77.34c0 4.21 2.767 8.42 8.3 11.612 11.062 6.388 29.166 6.388 40.23 0 5.53-3.193 8.297-7.403 8.297-11.613V56.246H71.33z" fill="#506E91"/>
        <path d="M72.266 57.182V77.34c0 4.05 2.78 7.888 7.83 10.803 10.834 6.254 28.46 6.254 39.295 0 5.05-2.915 7.83-6.752 7.83-10.804V57.18H72.267zm27.477 37.494c-7.455 0-14.908-1.637-20.583-4.915-5.65-3.26-8.763-7.673-8.763-12.42V56.246c0-.516.418-.934.934-.934h56.826c.517 0 .935.418.935.934V77.34c0 4.75-3.112 9.16-8.765 12.42-5.673 3.277-13.13 4.916-20.582 4.916z" fill="#33475C"/>
        <path d="M154.057 47.79v-5.008l-5.19-3.222-3.752 1.42L104.6 17.59c-2.67-1.543-7.042-1.543-9.713 0L53.49 41.49l-8.06 1.295v5.005c0 1.016.668 2.033 2.004 2.804L94.888 77.99c2.67 1.543 7.04 1.543 9.712 0l47.454-27.396c1.335-.77 2.003-1.788 2.003-2.804" fill="#7B97B7"/>
        <path d="M46.365 43.58v4.21c0 .703.56 1.43 1.537 1.995l47.453 27.397c2.38 1.374 6.4 1.372 8.778 0l47.453-27.397c.975-.564 1.536-1.29 1.536-1.995v-4.488l-4.356-2.705-3.32 1.257c-.26.1-.555.077-.798-.065l-40.515-23.393c-2.38-1.373-6.398-1.373-8.778 0l-41.397 23.9c-.098.06-.206.098-.32.116l-7.273 1.168zm53.378 36.513c-1.914 0-3.83-.43-5.322-1.294L46.968 51.402c-1.593-.92-2.47-2.204-2.47-3.613v-5.005c0-.458.333-.85.786-.923l7.89-1.27L94.422 16.78c2.985-1.727 7.663-1.725 10.648 0l40.13 23.17 3.336-1.265c.27-.102.577-.073.824.08l5.19 3.222c.273.17.44.47.44.795v5.008c0 1.41-.875 2.693-2.47 3.613L105.07 78.8c-1.493.86-3.41 1.293-5.325 1.293z" fill="#33475C"/>
        <path d="M47.434 45.588c-2.67-1.542-2.67-4.065 0-5.607l47.454-27.397c2.67-1.542 7.04-1.542 9.712 0l47.454 27.398c2.67 1.543 2.67 4.066 0 5.608L104.6 72.985c-2.67 1.542-7.04 1.542-9.712 0L47.434 45.588z" fill="#98ACC3"/>
        <path d="M99.743 12.363c-1.6 0-3.198.343-4.388 1.03L47.902 40.79c-.977.565-1.537 1.29-1.537 1.993 0 .706.56 1.434 1.537 1.998l47.453 27.397c2.378 1.374 6.4 1.372 8.778 0l47.453-27.397c.977-.563 1.535-1.29 1.535-1.997 0-.703-.557-1.428-1.534-1.992l-47.453-27.398c-1.19-.686-2.79-1.03-4.39-1.03m0 62.727c-1.915-.002-3.83-.433-5.323-1.296L46.967 46.398c-1.593-.92-2.47-2.204-2.47-3.615 0-1.41.877-2.69 2.47-3.61l47.453-27.4c2.985-1.723 7.663-1.723 10.647.002l47.454 27.398c1.592.92 2.47 2.2 2.47 3.61 0 1.41-.876 2.694-2.47 3.614l-47.453 27.398c-1.493.86-3.41 1.293-5.324 1.293" fill="#33475C"/>
        <path d="M99.746 44.947c-.97 0-1.914-.505-2.433-1.407-.772-1.34-.31-3.054 1.032-3.826l28.078-16.153c1.346-.773 3.057-.31 3.83 1.033.77 1.34.308 3.055-1.033 3.826l-28.08 16.152c-.44.255-.92.374-1.394.374" fill="#FF7A53"/>
        <path d="M127.818 24.123c-.316 0-.635.078-.93.248L98.81 40.525c-.893.513-1.2 1.657-.687 2.55.495.858 1.685 1.19 2.55.688l28.08-16.153c.894-.514 1.202-1.658.688-2.552-.344-.6-.974-.935-1.622-.935M99.746 45.88c-1.336 0-2.58-.716-3.243-1.874-.5-.865-.628-1.872-.37-2.836.26-.964.88-1.77 1.746-2.267l28.078-16.153c1.783-1.022 4.074-.412 5.104 1.377 1.027 1.785.41 4.076-1.377 5.103l-28.08 16.153c-.563.325-1.207.498-1.86.498" fill="#33475C"/>
        <path d="M99.744 36.896c-6.29 0-6.542 5.247-6.542 5.247 0 .97.637 1.94 1.91 2.674 2.548 1.47 6.716 1.47 9.263 0 1.274-.735 1.91-1.704 1.91-2.674 0 0-.252-5.247-6.54-5.247" fill="#F7C364"/>
        <path d="M99.743 37.83c-5.2 0-5.582 3.916-5.61 4.364.003.604.528 1.283 1.446 1.814 2.257 1.305 6.07 1.303 8.328 0 .917-.53 1.442-1.21 1.442-1.866-.025-.396-.408-4.31-5.607-4.31m0 9.033c-1.834 0-3.67-.413-5.098-1.24-1.533-.885-2.38-2.12-2.38-3.483.005-.105.38-6.18 7.478-6.18 7.1 0 7.473 6.075 7.475 6.135.002 1.405-.842 2.643-2.375 3.528-1.43.827-3.266 1.24-5.1 1.24" fill="#33475C"/>
        <path d="M137.588 73.86c.36 1.404.337 3.382 2.56 4.02 0 0 8.584.8 7.99-3.133 0 0-.758-.386-1.347-3.817-.362-2.12-10.212-1.02-9.202 2.93" fill="#F7C364"/>
        <path d="M144.107 70.79c-1.265 0-2.966.246-4.32.957-1.563.825-1.36 1.618-1.293 1.88.064.248.117.51.17.782.27 1.362.498 2.216 1.743 2.574 1.844.153 5.452.017 6.537-1.13.19-.2.282-.42.29-.692-.455-.57-.962-1.737-1.364-4.075-.164-.168-.85-.296-1.763-.296m-2.214 8.098c-.93 0-1.632-.058-1.83-.076-2.576-.724-2.97-2.72-3.232-4.04-.046-.237-.092-.467-.147-.683-.295-1.154.064-2.273 1.01-3.15 1.95-1.805 6.294-2.44 8.475-1.703 1.124.38 1.462 1.046 1.546 1.535.454 2.655.99 3.235.996 3.24.27.138.31.296.353.597.148.972-.117 1.846-.76 2.528-1.403 1.484-4.426 1.75-6.41 1.75" fill="#33475C"/>
        <path d="M139.56 75.334s3.264-3.694 8.578-.588c5.315 3.106 8.965 3.712 8.965 3.712s.52 9.335-6.488 9.655c0 0-4.126-.915-8.653-5.51-4.526-4.594-2.4-7.27-2.4-7.27" fill="#F7C364"/>
        <path d="M140.287 75.924c-.168.263-1.292 2.336 2.342 6.024 3.876 3.933 7.412 5.043 8.076 5.224 1.426-.092 2.548-.612 3.43-1.583 1.72-1.9 2-5 2.037-6.38-1.378-.345-4.476-1.302-8.504-3.657-4.35-2.54-7.05.028-7.383.37m10.328 13.125c-.068 0-.137-.007-.203-.022-.18-.04-4.448-1.03-9.116-5.768-5.048-5.122-2.575-8.37-2.467-8.504l.03-.038c.04-.044 3.84-4.233 9.75-.776 5.075 2.964 8.614 3.59 8.65 3.596.428.073.753.434.777.87.012.218.264 5.36-2.51 8.432-1.243 1.374-2.88 2.12-4.87 2.208-.013.002-.028.002-.042.002" fill="#33475C"/>
    </g>
</svg>
